{"title":"Bloodsport-720p MP4 AAC x264 BRRip 1988-CC","uid":7164329,"size":1839580006,"categoryP":"video","categoryS":"hd___movies","magnet":"?xt=urn:btih:8b586500a67197e2d5a679375d1919a0e4211929&amp;dn=Bloodsport-720p+MP4+AAC+x264+BRRip+1988-CC&amp;tr=udp%3A%2F%2Ftracker.openbittorrent.com%3A80&amp;tr=udp%3A%2F%2Fopen.demonii.com%3A1337&amp;tr=udp%3A%2F%2Ftracker.coppersurfer.tk%3A6969&amp;tr=udp%3A%2F%2Fexodus.desync.com%3A6969","seeders":1,"leechers":0,"uploader":"Caveman44","files":-1,"time":1333721538,"description":"Source: Bloodsport.1988.720p.BluRay.x264-FilmHD\n\nSubs: Arabic, Bulgarian, Chinese, Danish, Dutch, English, Finnish, French, Indonesian, Portuguese, Servian, Spanish, Swedish and Vietnamese.\n\nSample and Screens included.\n\nGeneral\nComplete name                    : Bloodsport-720p MP4 AAC x264 BRRip 1988-CC.mp4\nFormat                           : MPEG-4\nFormat profile                   : Base Media\nCodec ID                         : isom\nFile size                        : 1.69 GiB\nDuration                         : 1h 32mn\nOverall bit rate                 : 2 625 Kbps\nEncoded date                     : UTC 2012-04-04 13:06:28\n\n\nVideo\nID                               : 1\nFormat                           : AVC\nFormat/Info                      : Advanced Video Codec\nFormat profile                   : &lt;a class=&quot;__cf_email__&quot; href=&quot;/cdn-cgi/l/email-protection&quot; data-cfemail=&quot;4c04252b240c007f627d&quot;&gt;[email&amp;#160;protected]&lt;/a&gt;&lt;script cf-hash='f9e31' type=&quot;text/javascript&quot;&gt;\n/* &lt;![CDATA[ */!function(){try{var t=&quot;currentScript&quot;in document?document.currentScript:function(){for(var t=document.getElementsByTagName(&quot;script&quot;),e=t.length;e--;)if(t[e].getAttribute(&quot;cf-hash&quot;))return t[e]}();if(t&amp;&amp;t.previousSibling){var e,r,n,i,c=t.previousSibling,a=c.getAttribute(&quot;data-cfemail&quot;);if(a){for(e=&quot;&quot;,r=parseInt(a.substr(0,2),16),n=2;a.length-n;n+=2)i=parseInt(a.substr(n,2),16)^r,e+=String.fromCharCode(i);e=document.createTextNode(e),c.parentNode.replaceChild(e,c)}}}catch(u){}}();/* ]]&gt; */&lt;/script&gt;\nFormat settings, CABAC           : Yes\nFormat settings, ReFrames        : 5 frames\nCodec ID                         : avc1\nCodec ID/Info                    : Advanced Video Coding\nDuration                         : 1h 32mn\nBit rate mode                    : Variable\nBit rate                         : 2 300 Kbps\nNominal bit rate                 : 2 343 Kbps\nMaximum bit rate                 : 12.6 Mbps\nWidth                            : 1 280 pixels\nHeight                           : 720 pixels\nDisplay aspect ratio             : 16:9\nFrame rate mode                  : Variable\nFrame rate                       : 23.976 fps\nMinimum frame rate               : 19.048 fps\nMaximum frame rate               : 25.000 fps\nResolution                       : 24 bits\nColorimetry                      : 4:2:0\nScan type                        : Progressive\nBits/(Pixel*Frame)               : 0.104\nStream size                      : 1.48 GiB (88%)\nWriting library                  : x264 core 112\n\nAudio\nID                               : 2\nFormat                           : AAC\nFormat/Info                      : Advanced Audio Codec\nFormat version                   : Version 4\nFormat profile                   : LC\nFormat settings, SBR             : No\nCodec ID                         : 40\nDuration                         : 1h 32mn\nBit rate mode                    : Variable\nBit rate                         : 319 Kbps\nMaximum bit rate                 : 406 Kbps\nChannel(s)                       : 2 channels\nChannel positions                : L R\nSampling rate                    : 48.0 KHz\nResolution                       : 16 bits\nStream size                      : 211 MiB (12%)\nLanguage                         : English","torrent":{"xt":"urn:btih:8b586500a67197e2d5a679375d1919a0e4211929","amp;dn":"Bloodsport-720p+MP4+AAC+x264+BRRip+1988-CC","amp;tr":["udp%3A%2F%2Ftracker.openbittorrent.com%3A80","udp%3A%2F%2Fopen.demonii.com%3A1337","udp%3A%2F%2Ftracker.coppersurfer.tk%3A6969","udp%3A%2F%2Fexodus.desync.com%3A6969"],"infoHash":"8b586500a67197e2d5a679375d1919a0e4211929","infoHashBuffer":{"type":"Buffer","data":[139,88,101,0,166,113,151,226,213,166,121,55,93,25,25,160,228,33,25,41]},"announce":[],"urlList":[]}}